<svg width="22" height="23" viewBox="0 0 22 23" fill="none" xmlns="http://www.w3.org/2000/svg">
<path d="M10.9842 0.5C5.20057 0.5 0.45702 4.95032 0 10.6115L5.90974 13.049C6.41404 12.703 7.01289 12.5143 7.65903 12.5143C7.72206 12.5143 7.76934 12.5143 7.83238 12.5143L10.4642 8.70872C10.4642 8.69299 10.4642 8.67727 10.4642 8.66154C10.4642 6.38134 12.3238 4.51001 14.6246 4.51001C16.9097 4.51001 18.7851 6.36562 18.7851 8.66154C18.7851 10.9417 16.9255 12.8131 14.6246 12.8131C14.5931 12.8131 14.5616 12.8131 14.5301 12.8131L10.7794 15.4864C10.7794 15.5336 10.7794 15.5808 10.7794 15.6279C10.7794 17.342 9.37679 18.7416 7.65903 18.7416C6.14613 18.7416 4.88539 17.6723 4.60172 16.2412L0.378224 14.4957C1.68625 19.119 5.94126 22.5 10.9842 22.5C17.0673 22.5 22 17.5779 22 11.5079C22 5.42209 17.0673 0.5 10.9842 0.5Z" fill="white"/>
<path d="M6.9026 17.1848L5.5473 16.6344C5.78369 17.1376 6.20919 17.5465 6.76077 17.7823C7.95848 18.2698 9.32954 17.7194 9.81808 16.5243C10.0545 15.9425 10.0545 15.3134 9.81808 14.7316C9.58169 14.1497 9.12467 13.7094 8.55733 13.4578C7.99 13.2219 7.37538 13.2219 6.83957 13.4264L8.24214 14.0082C9.12467 14.3699 9.53441 15.3763 9.17194 16.257C8.79372 17.1376 7.78512 17.5622 6.9026 17.1848Z" fill="white"/>
<path d="M17.3825 8.66152C17.3825 7.13615 16.1376 5.89383 14.6089 5.89383C13.0803 5.89383 11.8353 7.13615 11.8353 8.66152C11.8353 10.1869 13.0803 11.4292 14.6089 11.4292C16.1376 11.4292 17.3825 10.1869 17.3825 8.66152ZM12.5444 8.66152C12.5444 7.51356 13.4742 6.58575 14.6247 6.58575C15.7751 6.58575 16.7049 7.51356 16.7049 8.66152C16.7049 9.80948 15.7751 10.7373 14.6247 10.7373C13.4742 10.7373 12.5444 9.80948 12.5444 8.66152Z" fill="white"/>
</svg>
